<svg width="20" height="20" viewBox="0 0 20 20" fill="none" xmlns="http://www.w3.org/2000/svg">
<path fill-rule="evenodd" clip-rule="evenodd" d="M0 10C0 15.5227 4.47727 20 10 20C15.5227 20 20 15.5227 20 10C20 4.47727 15.5227 0 10 0C4.47727 0 0 4.47727 0 10ZM7.00636 12.0064C6.83491 12.172 6.60527 12.2636 6.36691 12.2615C6.12855 12.2594 5.90054 12.1638 5.73198 11.9953C5.56343 11.8267 5.46782 11.5987 5.46575 11.3604C5.46368 11.122 5.55531 10.8924 5.72091 10.7209L9.35727 7.08455C9.52775 6.91412 9.75894 6.81838 10 6.81838C10.2411 6.81838 10.4722 6.91412 10.6427 7.08455L14.2791 10.7209C14.4447 10.8924 14.5363 11.122 14.5343 11.3604C14.5322 11.5987 14.4366 11.8267 14.268 11.9953C14.0995 12.1638 13.8715 12.2594 13.6331 12.2615C13.3947 12.2636 13.1651 12.172 12.9936 12.0064L10 9.01273L7.00636 12.0064Z" fill="#131316"/>
</svg>
