<svg width="20" height="20" viewBox="0 0 20 20" fill="none" xmlns="http://www.w3.org/2000/svg">
<path fill-rule="evenodd" clip-rule="evenodd" d="M10 20C15.5227 20 20 15.5227 20 10C20 4.47727 15.5227 0 10 0C4.47727 0 0 4.47727 0 10C0 15.5227 4.47727 20 10 20ZM12.0064 12.9936C12.172 13.1651 12.2636 13.3947 12.2615 13.6331C12.2594 13.8715 12.1638 14.0995 11.9953 14.268C11.8267 14.4366 11.5987 14.5322 11.3604 14.5342C11.122 14.5363 10.8924 14.4447 10.7209 14.2791L7.08455 10.6427C6.91412 10.4722 6.81838 10.2411 6.81838 10C6.81838 9.75894 6.91412 9.52775 7.08455 9.35727L10.7209 5.72091C10.8924 5.55531 11.122 5.46368 11.3604 5.46575C11.5987 5.46782 11.8267 5.56343 11.9953 5.73198C12.1638 5.90054 12.2594 6.12855 12.2615 6.36691C12.2636 6.60527 12.172 6.83491 12.0064 7.00636L9.01273 10L12.0064 12.9936Z" fill="#131316"/>
</svg>
