<svg width="20" height="20" viewBox="0 0 20 20" fill="none" xmlns="http://www.w3.org/2000/svg">
<path fill-rule="evenodd" clip-rule="evenodd" d="M10 0C4.47727 0 0 4.47727 0 10C0 15.5227 4.47727 20 10 20C15.5227 20 20 15.5227 20 10C20 4.47727 15.5227 0 10 0ZM7.99364 7.00636C7.82804 6.83491 7.73641 6.60527 7.73848 6.36691C7.74055 6.12855 7.83616 5.90054 8.00471 5.73198C8.17326 5.56343 8.40127 5.46782 8.63964 5.46575C8.878 5.46368 9.10763 5.55531 9.27909 5.72091L12.9155 9.35727C13.0859 9.52775 13.1816 9.75894 13.1816 10C13.1816 10.2411 13.0859 10.4722 12.9155 10.6427L9.27909 14.2791C9.10763 14.4447 8.878 14.5363 8.63964 14.5343C8.40127 14.5322 8.17326 14.4366 8.00471 14.268C7.83616 14.0995 7.74055 13.8715 7.73848 13.6331C7.73641 13.3947 7.82804 13.1651 7.99364 12.9936L10.9873 10L7.99364 7.00636Z" fill="#131316"/>
</svg>
