<svg width="85" height="24" viewBox="0 0 85 24" fill="none" xmlns="http://www.w3.org/2000/svg">
<path d="M15.7339 9.17434C14.8368 9.92108 14.3885 10.9597 14.5109 12.0077L14.4899 11.9902C14.6157 13.2235 14.078 14.4399 13.0203 15.315C11.9626 16.1902 10.4923 16.635 9.00177 16.5309L9.02282 16.5483C7.2181 16.4093 5.50181 17.2215 4.73162 18.579C3.96144 19.9365 5.2189 20.4856 6.50113 21.5456C7.78336 22.6055 8.81502 23.9486 10.4551 23.3102C12.0951 22.6717 13.0752 21.251 12.9056 19.7579L12.9278 19.7753C12.802 18.5421 13.3397 17.3257 14.3974 16.4506C15.4551 15.5754 16.9254 15.1306 18.4159 15.2347L18.3937 15.2173C20.3772 15.3649 22.2228 14.3642 22.851 12.8007C23.4792 11.2372 22.0101 10.5697 20.3147 9.70539C18.6192 8.84109 17.1428 8.00701 15.7374 9.17434H15.7339Z" fill="white"/>
<path d="M7.91254 14.3112C8.80975 13.5646 9.25771 12.5258 9.13432 11.4779L9.15654 11.4953C9.03061 10.2617 9.56858 9.04495 10.6269 8.16974C11.6851 7.29453 13.156 6.84996 14.647 6.95467L14.6247 6.93725C16.429 7.0771 18.1455 6.26586 18.9164 4.90898C19.6873 3.55209 17.6498 2.87242 16.3684 1.81225C15.087 0.752071 14.8369 -0.460934 13.1969 0.176875C11.5569 0.814683 10.5764 2.23486 10.7454 3.72764L10.7244 3.71023C10.8502 4.94347 10.3126 6.15989 9.25482 7.03502C8.19709 7.91015 6.72687 8.355 5.23631 8.25089L5.25735 8.26831C3.27398 8.12114 1.86718 8.47105 1.23932 10.0346C0.611462 11.5981 1.23933 12.0079 2.88379 12.9946C4.57926 13.8587 6.50957 15.4785 7.91488 14.3112H7.91254Z" fill="white"/>
<path d="M33.5091 20.6241C36.3152 20.6241 38.3095 19.3457 38.3095 16.8337V6.91959H35.6057V8.56874H35.5034C35.139 7.76973 34.34 6.79175 32.6973 6.79175C30.5432 6.79175 28.7214 8.46646 28.7214 11.8095C28.7214 15.0758 30.492 16.5971 32.7037 16.5971C34.2697 16.5971 35.1454 15.8109 35.5034 14.9991H35.6185V16.7953C35.6185 18.144 34.7555 18.6682 33.573 18.6682C32.3713 18.6682 31.764 18.144 31.5403 17.5496L29.0219 17.8883C29.3479 19.4352 30.8628 20.6241 33.5091 20.6241ZM33.5666 14.5517C32.2307 14.5517 31.502 13.4906 31.502 11.7967C31.502 10.1284 32.2179 8.95865 33.5666 8.95865C34.8898 8.95865 35.6312 10.0773 35.6312 11.7967C35.6312 13.529 34.877 14.5517 33.5666 14.5517Z" fill="white"/>
<path d="M42.1575 20.4196C44.1838 20.4196 45.2577 19.3841 45.8138 17.7988L49.6298 6.93237L46.747 6.91959L44.6952 14.1298H44.5929L42.5602 6.91959H39.6966L43.2186 17.019L43.0588 17.4345C42.7008 18.355 42.0169 18.3997 41.0581 18.1057L40.4444 20.1383C40.8344 20.3045 41.4672 20.4196 42.1575 20.4196Z" fill="white"/>
<path d="M51.0233 16.7378H53.7463V10.8443C53.7463 9.75766 54.4366 9.03536 55.3443 9.03536C56.2392 9.03536 56.84 9.64899 56.84 10.6142V16.7378H59.48V10.742C59.48 9.7257 60.0616 9.03536 61.0524 9.03536C61.9217 9.03536 62.5737 9.57868 62.5737 10.6717V16.7378H65.2903V10.1348C65.2903 8.00624 64.0247 6.79175 62.1966 6.79175C60.7584 6.79175 59.6398 7.52683 59.2371 8.65183H59.1348C58.8216 7.51405 57.818 6.79175 56.4693 6.79175C55.1462 6.79175 54.1426 7.49487 53.7335 8.65183H53.6185V6.91959H51.0233V16.7378Z" fill="white"/>
<path d="M67.7236 16.7379H69.5389V12.8089C69.5389 12.0845 69.9991 11.6029 70.6043 11.6029C71.2008 11.6029 71.6014 12.012 71.6014 12.6555V16.7379H73.3614V12.7407C73.3614 12.0631 73.7491 11.6029 74.4097 11.6029C74.9892 11.6029 75.4239 11.9651 75.4239 12.6938V16.7379H77.2349V12.3359C77.2349 10.9168 76.3912 10.1072 75.1724 10.1072C74.2136 10.1072 73.4679 10.5972 73.1994 11.3472H73.1312C72.9224 10.5887 72.2534 10.1072 71.3543 10.1072C70.4722 10.1072 69.8031 10.5759 69.5304 11.3472H69.4537V10.1924H67.7236V16.7379Z" fill="#4AE290"/>
<path d="M81.6518 16.8657C83.2712 16.8657 84.3621 16.0773 84.6177 14.8629L82.9388 14.7521C82.7555 15.2506 82.2868 15.5106 81.6817 15.5106C80.774 15.5106 80.1987 14.9097 80.1987 13.9339V13.9296H84.6561V13.431C84.6561 11.2066 83.3095 10.1072 81.5794 10.1072C79.6533 10.1072 78.4047 11.4751 78.4047 13.495C78.4047 15.5702 79.6362 16.8657 81.6518 16.8657ZM80.1987 12.8046C80.2371 12.0589 80.8038 11.4623 81.6092 11.4623C82.3976 11.4623 82.943 12.0248 82.9473 12.8046H80.1987Z" fill="#4AE290"/>
</svg>
